<?xml version="1.0" encoding="UTF-8" standalone="no"?>
<!DOCTYPE svg PUBLIC "-//W3C//DTD SVG 1.1//EN"
 "http://www.w3.org/Graphics/SVG/1.1/DTD/svg11.dtd">
<!-- Generated by graphviz version 2.40.1 (20161225.0304)
 -->
<!-- Title: dependencies Pages: 1 -->
<svg width="615pt" height="211pt"
 viewBox="0.00 0.00 615.00 211.00" xmlns="http://www.w3.org/2000/svg" xmlns:xlink="http://www.w3.org/1999/xlink">
<g id="graph0" class="graph" transform="scale(1 1) rotate(0) translate(4 207)">
<title>dependencies</title>
<polygon fill="#ffffff" stroke="transparent" points="-4,4 -4,-207 611,-207 611,4 -4,4"/>
<text text-anchor="start" x="282.5091" y="-42.4" font-family="sans-serif" font-weight="bold" font-size="14.00" fill="#000000">Legend</text>
<polygon fill="#ffffb3" stroke="transparent" points="69.5,-10 69.5,-30 89.5,-30 89.5,-10 69.5,-10"/>
<text text-anchor="start" x="93.129" y="-15.4" font-family="sans-serif" font-size="14.00" fill="#000000"> &#160;Declarations</text>
<polygon fill="#8dd3c7" stroke="transparent" points="182.5,-10 182.5,-30 202.5,-30 202.5,-10 182.5,-10"/>
<text text-anchor="start" x="206.2251" y="-15.4" font-family="sans-serif" font-size="14.00" fill="#000000"> &#160;Module</text>
<polygon fill="#80b1d3" stroke="transparent" points="268.5,-10 268.5,-30 288.5,-30 288.5,-10 268.5,-10"/>
<text text-anchor="start" x="292.2812" y="-15.4" font-family="sans-serif" font-size="14.00" fill="#000000"> &#160;Bootstrap</text>
<polygon fill="#fdb462" stroke="transparent" points="365.5,-10 365.5,-30 385.5,-30 385.5,-10 365.5,-10"/>
<text text-anchor="start" x="389.1732" y="-15.4" font-family="sans-serif" font-size="14.00" fill="#000000"> &#160;Providers</text>
<polygon fill="#fb8072" stroke="transparent" points="461.5,-10 461.5,-30 481.5,-30 481.5,-10 461.5,-10"/>
<text text-anchor="start" x="485.2258" y="-15.4" font-family="sans-serif" font-size="14.00" fill="#000000"> &#160;Exports</text>
<g id="clust1" class="cluster">
<title>cluster_ExamplesModule</title>
<polygon fill="none" stroke="#000000" stroke-dasharray="1,5" points="8,-70 8,-195 599,-195 599,-70 8,-70"/>
</g>
<g id="clust2" class="cluster">
<title>cluster_ExamplesModule_declarations</title>
<polygon fill="none" stroke="#000000" points="16,-78 16,-130 591,-130 591,-78 16,-78"/>
</g>
<!-- AutocompleteChiplistComponent -->
<g id="node1" class="node">
<title>AutocompleteChiplistComponent</title>
<polygon fill="#ffffb3" stroke="#000000" points="583.4888,-122 378.5112,-122 378.5112,-86 583.4888,-86 583.4888,-122"/>
<text text-anchor="middle" x="481" y="-99.8" font-family="Times,serif" font-size="14.00" fill="#000000">AutocompleteChiplistComponent</text>
</g>
<!-- ExamplesModule -->
<g id="node4" class="node">
<title>ExamplesModule</title>
<polygon fill="#8dd3c7" stroke="#000000" points="336.2577,-187 333.2577,-191 312.2577,-191 309.2577,-187 221.7423,-187 221.7423,-151 336.2577,-151 336.2577,-187"/>
<text text-anchor="middle" x="279" y="-164.8" font-family="Times,serif" font-size="14.00" fill="#000000">ExamplesModule</text>
</g>
<!-- AutocompleteChiplistComponent&#45;&gt;ExamplesModule -->
<g id="edge1" class="edge">
<title>AutocompleteChiplistComponent&#45;&gt;ExamplesModule</title>
<path fill="none" stroke="#000000" d="M481,-122.1061C481,-141.3391 481,-169 481,-169 481,-169 346.3448,-169 346.3448,-169"/>
<polygon fill="#000000" stroke="#000000" points="346.3448,-165.5001 336.3448,-169 346.3447,-172.5001 346.3448,-165.5001"/>
</g>
<!-- DynamicFormComponent -->
<g id="node2" class="node">
<title>DynamicFormComponent</title>
<polygon fill="#ffffb3" stroke="#000000" points="360.4832,-122 197.5168,-122 197.5168,-86 360.4832,-86 360.4832,-122"/>
<text text-anchor="middle" x="279" y="-99.8" font-family="Times,serif" font-size="14.00" fill="#000000">DynamicFormComponent</text>
</g>
<!-- DynamicFormComponent&#45;&gt;ExamplesModule -->
<g id="edge2" class="edge">
<title>DynamicFormComponent&#45;&gt;ExamplesModule</title>
<path fill="none" stroke="#000000" d="M279,-122.1061C279,-122.1061 279,-140.991 279,-140.991"/>
<polygon fill="#000000" stroke="#000000" points="275.5001,-140.9909 279,-150.991 282.5001,-140.991 275.5001,-140.9909"/>
</g>
<!-- LandingPageComponent -->
<g id="node3" class="node">
<title>LandingPageComponent</title>
<polygon fill="#ffffb3" stroke="#000000" points="179.7021,-122 24.2979,-122 24.2979,-86 179.7021,-86 179.7021,-122"/>
<text text-anchor="middle" x="102" y="-99.8" font-family="Times,serif" font-size="14.00" fill="#000000">LandingPageComponent</text>
</g>
<!-- LandingPageComponent&#45;&gt;ExamplesModule -->
<g id="edge3" class="edge">
<title>LandingPageComponent&#45;&gt;ExamplesModule</title>
<path fill="none" stroke="#000000" d="M102,-122.1061C102,-141.3391 102,-169 102,-169 102,-169 211.5332,-169 211.5332,-169"/>
<polygon fill="#000000" stroke="#000000" points="211.5332,-172.5001 221.5332,-169 211.5331,-165.5001 211.5332,-172.5001"/>
</g>
</g>
</svg>
