<?xml version="1.0" encoding="UTF-8" standalone="no"?>
<!DOCTYPE svg PUBLIC "-//W3C//DTD SVG 1.1//EN"
 "http://www.w3.org/Graphics/SVG/1.1/DTD/svg11.dtd">
<!-- Generated by graphviz version 2.40.1 (20161225.0304)
 -->
<!-- Title: dependencies Pages: 1 -->
<svg width="504pt" height="284pt"
 viewBox="0.00 0.00 504.00 284.00" xmlns="http://www.w3.org/2000/svg" xmlns:xlink="http://www.w3.org/1999/xlink">
<g id="graph0" class="graph" transform="scale(1 1) rotate(0) translate(4 280)">
<title>dependencies</title>
<polygon fill="#ffffff" stroke="transparent" points="-4,4 -4,-280 500,-280 500,4 -4,4"/>
<text text-anchor="start" x="227.0091" y="-42.4" font-family="sans-serif" font-weight="bold" font-size="14.00" fill="#000000">Legend</text>
<polygon fill="#ffffb3" stroke="transparent" points="14,-10 14,-30 34,-30 34,-10 14,-10"/>
<text text-anchor="start" x="37.629" y="-15.4" font-family="sans-serif" font-size="14.00" fill="#000000"> &#160;Declarations</text>
<polygon fill="#8dd3c7" stroke="transparent" points="127,-10 127,-30 147,-30 147,-10 127,-10"/>
<text text-anchor="start" x="150.7251" y="-15.4" font-family="sans-serif" font-size="14.00" fill="#000000"> &#160;Module</text>
<polygon fill="#80b1d3" stroke="transparent" points="213,-10 213,-30 233,-30 233,-10 213,-10"/>
<text text-anchor="start" x="236.7812" y="-15.4" font-family="sans-serif" font-size="14.00" fill="#000000"> &#160;Bootstrap</text>
<polygon fill="#fdb462" stroke="transparent" points="310,-10 310,-30 330,-30 330,-10 310,-10"/>
<text text-anchor="start" x="333.6732" y="-15.4" font-family="sans-serif" font-size="14.00" fill="#000000"> &#160;Providers</text>
<polygon fill="#fb8072" stroke="transparent" points="406,-10 406,-30 426,-30 426,-10 406,-10"/>
<text text-anchor="start" x="429.7258" y="-15.4" font-family="sans-serif" font-size="14.00" fill="#000000"> &#160;Exports</text>
<g id="clust1" class="cluster">
<title>cluster_AppModule</title>
<polygon fill="none" stroke="#000000" stroke-dasharray="1,5" points="36.5,-70 36.5,-268 459.5,-268 459.5,-70 36.5,-70"/>
</g>
<g id="clust2" class="cluster">
<title>cluster_AppModule_declarations</title>
<polygon fill="none" stroke="#000000" points="329.5,-78 329.5,-130 451.5,-130 451.5,-78 329.5,-78"/>
</g>
<g id="clust4" class="cluster">
<title>cluster_AppModule_imports</title>
<polygon fill="none" stroke="#000000" points="44.5,-78 44.5,-130 321.5,-130 321.5,-78 44.5,-78"/>
</g>
<g id="clust6" class="cluster">
<title>cluster_AppModule_bootstrap</title>
<polygon fill="none" stroke="#000000" points="187.5,-208 187.5,-260 311.5,-260 311.5,-208 187.5,-208"/>
</g>
<!-- AppComponent -->
<g id="node1" class="node">
<title>AppComponent</title>
<polygon fill="#ffffb3" stroke="#000000" points="443.4399,-122 337.5601,-122 337.5601,-86 443.4399,-86 443.4399,-122"/>
<text text-anchor="middle" x="390.5" y="-99.8" font-family="Times,serif" font-size="14.00" fill="#000000">AppComponent</text>
</g>
<!-- AppModule -->
<g id="node2" class="node">
<title>AppModule</title>
<polygon fill="#8dd3c7" stroke="#000000" points="291.1571,-187 288.1571,-191 267.1571,-191 264.1571,-187 207.8429,-187 207.8429,-151 291.1571,-151 291.1571,-187"/>
<text text-anchor="middle" x="249.5" y="-164.8" font-family="Times,serif" font-size="14.00" fill="#000000">AppModule</text>
</g>
<!-- AppComponent&#45;&gt;AppModule -->
<g id="edge1" class="edge">
<title>AppComponent&#45;&gt;AppModule</title>
<path fill="none" stroke="#000000" d="M390.5,-122.1061C390.5,-141.3391 390.5,-169 390.5,-169 390.5,-169 301.4229,-169 301.4229,-169"/>
<polygon fill="#000000" stroke="#000000" points="301.4229,-165.5001 291.4229,-169 301.4229,-172.5001 301.4229,-165.5001"/>
</g>
<!-- AppComponent  -->
<g id="node5" class="node">
<title>AppComponent </title>
<polygon fill="#80b1d3" stroke="#000000" points="303.939,-252 195.061,-252 195.061,-216 303.939,-216 303.939,-252"/>
<text text-anchor="middle" x="249.5" y="-229.8" font-family="Times,serif" font-size="14.00" fill="#000000">AppComponent </text>
</g>
<!-- AppModule&#45;&gt;AppComponent  -->
<g id="edge4" class="edge">
<title>AppModule&#45;&gt;AppComponent </title>
<path fill="none" stroke="#000000" stroke-dasharray="1,5" d="M249.5,-187.1061C249.5,-187.1061 249.5,-205.991 249.5,-205.991"/>
<polygon fill="#000000" stroke="#000000" points="246.0001,-205.9909 249.5,-215.991 253.0001,-205.991 246.0001,-205.9909"/>
</g>
<!-- AppRoutingModule -->
<g id="node3" class="node">
<title>AppRoutingModule</title>
<polygon fill="#8dd3c7" stroke="#000000" points="313.7744,-122 310.7744,-126 289.7744,-126 286.7744,-122 185.2256,-122 185.2256,-86 313.7744,-86 313.7744,-122"/>
<text text-anchor="middle" x="249.5" y="-99.8" font-family="Times,serif" font-size="14.00" fill="#000000">AppRoutingModule</text>
</g>
<!-- AppRoutingModule&#45;&gt;AppModule -->
<g id="edge2" class="edge">
<title>AppRoutingModule&#45;&gt;AppModule</title>
<path fill="none" stroke="#000000" d="M249.5,-122.1061C249.5,-122.1061 249.5,-140.991 249.5,-140.991"/>
<polygon fill="#000000" stroke="#000000" points="246.0001,-140.9909 249.5,-150.991 253.0001,-140.991 246.0001,-140.9909"/>
</g>
<!-- ExamplesModule -->
<g id="node4" class="node">
<title>ExamplesModule</title>
<polygon fill="#8dd3c7" stroke="#000000" points="166.7577,-122 163.7577,-126 142.7577,-126 139.7577,-122 52.2423,-122 52.2423,-86 166.7577,-86 166.7577,-122"/>
<text text-anchor="middle" x="109.5" y="-99.8" font-family="Times,serif" font-size="14.00" fill="#000000">ExamplesModule</text>
</g>
<!-- ExamplesModule&#45;&gt;AppModule -->
<g id="edge3" class="edge">
<title>ExamplesModule&#45;&gt;AppModule</title>
<path fill="none" stroke="#000000" d="M109.5,-122.1061C109.5,-141.3391 109.5,-169 109.5,-169 109.5,-169 197.4954,-169 197.4954,-169"/>
<polygon fill="#000000" stroke="#000000" points="197.4954,-172.5001 207.4954,-169 197.4953,-165.5001 197.4954,-172.5001"/>
</g>
</g>
</svg>
