<?xml version="1.0" encoding="UTF-8" standalone="no"?>
<!DOCTYPE svg PUBLIC "-//W3C//DTD SVG 1.1//EN"
 "http://www.w3.org/Graphics/SVG/1.1/DTD/svg11.dtd">
<!-- Generated by graphviz version 2.40.1 (20161225.0304)
 -->
<!-- Title: dependencies Pages: 1 -->
<svg width="645pt" height="360pt"
 viewBox="0.00 0.00 645.00 360.00" xmlns="http://www.w3.org/2000/svg" xmlns:xlink="http://www.w3.org/1999/xlink">
<g id="graph0" class="graph" transform="scale(1 1) rotate(0) translate(4 356)">
<title>dependencies</title>
<polygon fill="#ffffff" stroke="transparent" points="-4,4 -4,-356 641,-356 641,4 -4,4"/>
<text text-anchor="start" x="297.5091" y="-42.4" font-family="sans-serif" font-weight="bold" font-size="14.00" fill="#000000">Legend</text>
<polygon fill="#ffffb3" stroke="transparent" points="84.5,-10 84.5,-30 104.5,-30 104.5,-10 84.5,-10"/>
<text text-anchor="start" x="108.129" y="-15.4" font-family="sans-serif" font-size="14.00" fill="#000000"> &#160;Declarations</text>
<polygon fill="#8dd3c7" stroke="transparent" points="197.5,-10 197.5,-30 217.5,-30 217.5,-10 197.5,-10"/>
<text text-anchor="start" x="221.2251" y="-15.4" font-family="sans-serif" font-size="14.00" fill="#000000"> &#160;Module</text>
<polygon fill="#80b1d3" stroke="transparent" points="283.5,-10 283.5,-30 303.5,-30 303.5,-10 283.5,-10"/>
<text text-anchor="start" x="307.2812" y="-15.4" font-family="sans-serif" font-size="14.00" fill="#000000"> &#160;Bootstrap</text>
<polygon fill="#fdb462" stroke="transparent" points="380.5,-10 380.5,-30 400.5,-30 400.5,-10 380.5,-10"/>
<text text-anchor="start" x="404.1732" y="-15.4" font-family="sans-serif" font-size="14.00" fill="#000000"> &#160;Providers</text>
<polygon fill="#fb8072" stroke="transparent" points="476.5,-10 476.5,-30 496.5,-30 496.5,-10 476.5,-10"/>
<text text-anchor="start" x="500.2258" y="-15.4" font-family="sans-serif" font-size="14.00" fill="#000000"> &#160;Exports</text>
<g id="clust1" class="cluster">
<title>cluster_AppModule</title>
<polygon fill="none" stroke="#000000" stroke-dasharray="1,5" points="206,-146 206,-344 629,-344 629,-146 206,-146"/>
</g>
<g id="clust2" class="cluster">
<title>cluster_AppModule_declarations</title>
<polygon fill="none" stroke="#000000" points="499,-154 499,-206 621,-206 621,-154 499,-154"/>
</g>
<g id="clust4" class="cluster">
<title>cluster_AppModule_imports</title>
<polygon fill="none" stroke="#000000" points="214,-154 214,-206 491,-206 491,-154 214,-154"/>
</g>
<g id="clust6" class="cluster">
<title>cluster_AppModule_bootstrap</title>
<polygon fill="none" stroke="#000000" points="357,-284 357,-336 481,-336 481,-284 357,-284"/>
</g>
<g id="clust14" class="cluster">
<title>cluster_ExamplesModule</title>
<polygon fill="none" stroke="#000000" stroke-dasharray="1,5" points="8,-70 8,-138 599,-138 599,-70 8,-70"/>
</g>
<g id="clust15" class="cluster">
<title>cluster_ExamplesModule_declarations</title>
<polygon fill="none" stroke="#000000" points="16,-78 16,-130 591,-130 591,-78 16,-78"/>
</g>
<!-- AppComponent -->
<g id="node1" class="node">
<title>AppComponent</title>
<polygon fill="#ffffb3" stroke="#000000" points="612.9399,-198 507.0601,-198 507.0601,-162 612.9399,-162 612.9399,-198"/>
<text text-anchor="middle" x="560" y="-175.8" font-family="Times,serif" font-size="14.00" fill="#000000">AppComponent</text>
</g>
<!-- AppModule -->
<g id="node2" class="node">
<title>AppModule</title>
<polygon fill="#8dd3c7" stroke="#000000" points="460.6571,-263 457.6571,-267 436.6571,-267 433.6571,-263 377.3429,-263 377.3429,-227 460.6571,-227 460.6571,-263"/>
<text text-anchor="middle" x="419" y="-240.8" font-family="Times,serif" font-size="14.00" fill="#000000">AppModule</text>
</g>
<!-- AppComponent&#45;&gt;AppModule -->
<g id="edge1" class="edge">
<title>AppComponent&#45;&gt;AppModule</title>
<path fill="none" stroke="#000000" d="M560,-198.1061C560,-217.3391 560,-245 560,-245 560,-245 470.9229,-245 470.9229,-245"/>
<polygon fill="#000000" stroke="#000000" points="470.9229,-241.5001 460.9229,-245 470.9229,-248.5001 470.9229,-241.5001"/>
</g>
<!-- AppComponent  -->
<g id="node5" class="node">
<title>AppComponent </title>
<polygon fill="#80b1d3" stroke="#000000" points="473.439,-328 364.561,-328 364.561,-292 473.439,-292 473.439,-328"/>
<text text-anchor="middle" x="419" y="-305.8" font-family="Times,serif" font-size="14.00" fill="#000000">AppComponent </text>
</g>
<!-- AppModule&#45;&gt;AppComponent  -->
<g id="edge4" class="edge">
<title>AppModule&#45;&gt;AppComponent </title>
<path fill="none" stroke="#000000" stroke-dasharray="1,5" d="M419,-263.1061C419,-263.1061 419,-281.991 419,-281.991"/>
<polygon fill="#000000" stroke="#000000" points="415.5001,-281.9909 419,-291.991 422.5001,-281.991 415.5001,-281.9909"/>
</g>
<!-- AppRoutingModule -->
<g id="node3" class="node">
<title>AppRoutingModule</title>
<polygon fill="#8dd3c7" stroke="#000000" points="483.2744,-198 480.2744,-202 459.2744,-202 456.2744,-198 354.7256,-198 354.7256,-162 483.2744,-162 483.2744,-198"/>
<text text-anchor="middle" x="419" y="-175.8" font-family="Times,serif" font-size="14.00" fill="#000000">AppRoutingModule</text>
</g>
<!-- AppRoutingModule&#45;&gt;AppModule -->
<g id="edge2" class="edge">
<title>AppRoutingModule&#45;&gt;AppModule</title>
<path fill="none" stroke="#000000" d="M419,-198.1061C419,-198.1061 419,-216.991 419,-216.991"/>
<polygon fill="#000000" stroke="#000000" points="415.5001,-216.9909 419,-226.991 422.5001,-216.991 415.5001,-216.9909"/>
</g>
<!-- ExamplesModule -->
<g id="node4" class="node">
<title>ExamplesModule</title>
<polygon fill="#8dd3c7" stroke="#000000" points="336.2577,-198 333.2577,-202 312.2577,-202 309.2577,-198 221.7423,-198 221.7423,-162 336.2577,-162 336.2577,-198"/>
<text text-anchor="middle" x="279" y="-175.8" font-family="Times,serif" font-size="14.00" fill="#000000">ExamplesModule</text>
</g>
<!-- ExamplesModule&#45;&gt;AppModule -->
<g id="edge3" class="edge">
<title>ExamplesModule&#45;&gt;AppModule</title>
<path fill="none" stroke="#000000" d="M279,-198.1061C279,-217.3391 279,-245 279,-245 279,-245 366.9954,-245 366.9954,-245"/>
<polygon fill="#000000" stroke="#000000" points="366.9954,-248.5001 376.9954,-245 366.9953,-241.5001 366.9954,-248.5001"/>
</g>
<!-- AutocompleteChiplistComponent -->
<g id="node6" class="node">
<title>AutocompleteChiplistComponent</title>
<polygon fill="#ffffb3" stroke="#000000" points="583.4888,-122 378.5112,-122 378.5112,-86 583.4888,-86 583.4888,-122"/>
<text text-anchor="middle" x="481" y="-99.8" font-family="Times,serif" font-size="14.00" fill="#000000">AutocompleteChiplistComponent</text>
</g>
<!-- AutocompleteChiplistComponent&#45;&gt;ExamplesModule -->
<g id="edge5" class="edge">
<title>AutocompleteChiplistComponent&#45;&gt;ExamplesModule</title>
<path fill="none" stroke="#000000" d="M430.9463,-122.1097C430.9463,-131.897 430.9463,-142 430.9463,-142 430.9463,-142 298.1262,-142 298.1262,-142 298.1262,-142 298.1262,-151.8903 298.1262,-151.8903"/>
<polygon fill="#000000" stroke="#000000" points="294.6263,-151.8903 298.1262,-161.8903 301.6263,-151.8904 294.6263,-151.8903"/>
</g>
<!-- DynamicFormComponent -->
<g id="node7" class="node">
<title>DynamicFormComponent</title>
<polygon fill="#ffffb3" stroke="#000000" points="360.4832,-122 197.5168,-122 197.5168,-86 360.4832,-86 360.4832,-122"/>
<text text-anchor="middle" x="279" y="-99.8" font-family="Times,serif" font-size="14.00" fill="#000000">DynamicFormComponent</text>
</g>
<!-- DynamicFormComponent&#45;&gt;ExamplesModule -->
<g id="edge6" class="edge">
<title>DynamicFormComponent&#45;&gt;ExamplesModule</title>
<path fill="none" stroke="#000000" d="M259.8738,-122.0109C259.8738,-122.0109 259.8738,-151.855 259.8738,-151.855"/>
<polygon fill="#000000" stroke="#000000" points="256.3739,-151.8549 259.8738,-161.855 263.3739,-151.855 256.3739,-151.8549"/>
</g>
<!-- LandingPageComponent -->
<g id="node8" class="node">
<title>LandingPageComponent</title>
<polygon fill="#ffffb3" stroke="#000000" points="179.7021,-122 24.2979,-122 24.2979,-86 179.7021,-86 179.7021,-122"/>
<text text-anchor="middle" x="102" y="-99.8" font-family="Times,serif" font-size="14.00" fill="#000000">LandingPageComponent</text>
</g>
<!-- LandingPageComponent&#45;&gt;ExamplesModule -->
<g id="edge7" class="edge">
<title>LandingPageComponent&#45;&gt;ExamplesModule</title>
<path fill="none" stroke="#000000" d="M102,-122.0109C102,-144.4852 102,-180 102,-180 102,-180 211.5332,-180 211.5332,-180"/>
<polygon fill="#000000" stroke="#000000" points="211.5332,-183.5001 221.5332,-180 211.5331,-176.5001 211.5332,-183.5001"/>
</g>
</g>
</svg>
